<?xml version="1.0" encoding="utf-8"?>
<svg width="108px" height="108px" viewBox="0 0 108 108" version="1.1" xmlns:xlink="http://www.w3.org/1999/xlink" xmlns="http://www.w3.org/2000/svg">
  <defs>
    <path d="M0 0L108 0L108 108L0 108L0 0Z" id="path_1" />
    <clipPath id="mask_1">
      <use xlink:href="#path_1" />
    </clipPath>
  </defs>
  <g id="Lock-icon">
    <path d="M0 0L108 0L108 108L0 108L0 0Z" id="Background" fill="none" fill-rule="evenodd" stroke="none" />
    <g clip-path="url(#mask_1)">
      <path d="M54 6.75C39.1289 6.75 27 18.8789 27 33.75L27 40.5L23.625 40.5C18.0615 40.5 13.5 45.0615 13.5 50.625L13.5 84.375C13.5 89.9385 18.0615 94.5 23.625 94.5L84.375 94.5C89.9385 94.5 94.5 89.9385 94.5 84.375L94.5 50.625C94.5 45.0615 89.9385 40.5 84.375 40.5L81 40.5L81 33.75C81 18.8789 68.8711 6.75 54 6.75L54 6.75ZM54 13.5C65.2324 13.5 74.25 22.5176 74.25 33.75L74.25 40.5L33.75 40.5L33.75 33.75C33.75 22.5176 42.7676 13.5 54 13.5L54 13.5ZM23.625 47.25L84.375 47.25C86.2734 47.25 87.75 48.7266 87.75 50.625L87.75 84.375C87.75 86.2734 86.2734 87.75 84.375 87.75L23.625 87.75C21.7266 87.75 20.25 86.2734 20.25 84.375L20.25 50.625C20.25 48.7266 21.7266 47.25 23.625 47.25L23.625 47.25Z" id="Shape" fill="#000000" fill-rule="evenodd" stroke="none" />
    </g>
  </g>
</svg>