<?xml version="1.0" encoding="utf-8"?>
<svg width="276px" height="94.5px" viewBox="0 0 276 94.5" version="1.1" xmlns:xlink="http://www.w3.org/1999/xlink" xmlns="http://www.w3.org/2000/svg">
  <g id="Group" transform="translate(4.5 4.5)">
    <g id="FOCUS">
      <path d="M92.9219 39.0156Q92.9219 50.1406 86.5469 56.6875Q80.1719 63.2344 68.9219 63.2344Q57.7031 63.2344 51.3281 56.6875Q44.9531 50.1406 44.9531 39.0156Q44.9531 27.7969 51.3281 21.2813Q57.7031 14.7656 68.9219 14.7656Q80.1094 14.7656 86.5156 21.2813Q92.9219 27.7969 92.9219 39.0156ZM113.531 61.6406Q117.922 63.1719 123.109 63.1719Q126.609 63.1719 128.609 62.8281Q130.609 62.4844 132.891 61.8281Q134.641 61.3281 136.234 60.6406Q137.828 59.9531 139.578 59.1719L139.578 48.0469L138.328 48.0469Q137.484 48.793 136.172 49.8191Q134.859 50.8452 133.328 51.7466Q131.516 52.8662 129.375 53.519Q127.234 54.1719 125.047 54.1719Q122.766 54.1719 120.422 53.439Q118.078 52.7061 116.172 50.9907Q114.297 49.3071 113.063 46.3755Q111.828 43.4438 111.828 39.0781Q111.828 34.8989 112.969 31.9675Q114.109 29.0361 115.953 27.2588Q117.891 25.4185 120.172 24.6233Q122.453 23.8281 124.984 23.8281Q127.266 23.8281 129.266 24.5122Q131.266 25.1963 132.984 26.1909Q134.672 27.186 136 28.2122Q137.328 29.2383 138.203 29.9844L139.578 29.9844L139.578 18.7031Q138.297 18.0781 136.594 17.3438Q134.891 16.6094 132.797 16.0156Q130.797 15.4844 128.438 15.1563Q126.078 14.8281 123.141 14.8281Q117.828 14.8281 113.344 16.5156Q108.859 18.2031 105.828 21.2969Q102.672 24.5156 101.016 29.0156Q99.3594 33.5156 99.3594 39.0469Q99.3594 44.9844 101.094 49.5156Q102.828 54.0469 105.984 57.0781Q109.141 60.1094 113.531 61.6406ZM231.781 58.8125Q237.609 54.5156 237.609 47.6406Q237.609 42.8281 235.063 39.8125Q232.516 36.7969 227.172 35.0469Q224.453 34.1719 222.094 33.6719Q219.734 33.1719 217.172 32.6406Q213.266 31.8281 211.859 30.8438Q210.453 29.8594 210.453 28.0156Q210.453 26.7969 211.328 25.8438Q212.203 24.8906 213.422 24.4219Q214.797 23.8594 216.281 23.6563Q217.766 23.4531 219.266 23.4531Q223.516 23.4531 227.594 24.9688Q231.672 26.4844 234.484 28.7344L235.766 28.7344L235.766 18.0156Q232.484 16.6719 228 15.7813Q223.516 14.8906 218.922 14.8906Q209.766 14.8906 203.938 19Q198.109 23.1094 198.109 29.6094Q198.109 34.4531 200.688 37.7188Q203.266 40.9844 209.141 42.8906Q211.703 43.7344 214.625 44.2813Q217.547 44.8281 220.172 45.4531Q222.672 46.0469 223.969 47.1563Q225.266 48.2656 225.266 49.7969Q225.266 51.4531 224.375 52.2969Q223.484 53.1406 222.109 53.7031Q220.984 54.1406 219.203 54.3281Q217.422 54.5156 216.328 54.5156Q212.078 54.5156 207.469 52.9219Q202.859 51.3281 199.141 48.3594L197.828 48.3594L197.828 59.5156Q201.578 61.0781 205.875 62.0938Q210.172 63.1094 215.953 63.1094Q225.953 63.1094 231.781 58.8125ZM39.3906 24.7344L17.9844 24.7344L17.9844 33.3906L37.8281 33.3906L37.8281 42.3906L17.9844 42.3906L17.9844 62.2656L6.04688 62.2656L6.04688 15.7344L39.3906 15.7344L39.3906 24.7344ZM189.141 45.4219Q189.141 54.0469 183.891 58.6406Q178.641 63.2344 168.422 63.2344Q158.203 63.2344 152.969 58.6406Q147.734 54.0469 147.734 45.4531L147.734 15.7344L159.797 15.7344L159.797 44.7656Q159.797 49.6094 161.828 51.9844Q163.859 54.3594 168.422 54.3594Q172.922 54.3594 175 52.0781Q177.078 49.7969 177.078 44.7656L177.078 15.7344L189.141 15.7344L189.141 45.4219ZM77.0156 50.7969Q78.7656 48.6719 79.6094 45.7813Q80.4531 42.8906 80.4531 38.9844Q80.4531 34.7969 79.4844 31.8594Q78.5156 28.9219 76.9531 27.1094Q75.3594 25.2344 73.2813 24.3906Q71.2031 23.5469 68.9531 23.5469Q66.6719 23.5469 64.6563 24.3594Q62.6406 25.1719 60.9531 27.0469Q59.3906 28.7969 58.4063 31.875Q57.4219 34.9531 57.4219 39.0156Q57.4219 43.1719 58.375 46.0938Q59.3281 49.0156 60.8906 50.8594Q62.4531 52.7031 64.5469 53.5781Q66.6406 54.4531 68.9531 54.4531Q71.2656 54.4531 73.3594 53.5625Q75.4531 52.6719 77.0156 50.7969Z" />
    </g>
    <path d="M11 80.5L134 80.5" id="Line" fill="none" fill-rule="evenodd" stroke="#FD5806" stroke-width="9" stroke-linecap="square" />
    <g id="web-dev,-uiux-designer" transform="translate(148 71.5)">
      <path d="M15.6387 6.91797L16.793 2.86914L14.7656 3.19727L14.7656 3.41992Q15.0176 3.37891 15.1406 3.37891Q15.4043 3.37891 15.5391 3.48438Q15.6328 3.56055 15.6328 3.71289Q15.6328 3.83594 15.4277 4.54492L13.6465 10.6797Q14.5781 11.3418 15.4629 11.3418Q16.2539 11.3418 17.0684 10.8203Q17.8828 10.2988 18.4219 9.36426Q18.9609 8.42969 18.9609 7.48633Q18.9609 6.75391 18.5508 6.32617Q18.1406 5.89844 17.4961 5.89844Q17.0391 5.89844 16.6201 6.11523Q16.2012 6.33203 15.6387 6.91797ZM27.6387 10.5215Q27.6387 10.3457 27.8027 9.7832L29.8184 2.86914L27.8027 3.20313L27.8027 3.41992Q28.1133 3.37891 28.248 3.37891Q28.4414 3.37891 28.5645 3.47852Q28.6523 3.56055 28.6523 3.68359Q28.6523 3.83594 28.582 4.07031Q28.541 4.19922 28.4766 4.41602L27.9023 6.45508Q27.6797 6.15625 27.4512 6.02734Q27.2227 5.89844 26.9063 5.89844Q26.3027 5.89844 25.582 6.39648Q24.668 7.01758 24.1113 8.00781Q23.5547 8.99805 23.5547 9.87109Q23.5547 10.5508 23.8857 10.9463Q24.2168 11.3418 24.6621 11.3418Q25.1016 11.3418 25.582 10.9961Q26.2793 10.4922 27.1289 9.17969L26.9004 9.90625Q26.7246 10.4688 26.7246 10.8027Q26.7246 11.0605 26.8535 11.2012Q26.9824 11.3418 27.1816 11.3418Q27.5566 11.3418 27.9873 10.9785Q28.418 10.6152 28.8398 10.0293L28.6406 9.90625Q28.1719 10.4688 27.9727 10.6094Q27.8672 10.6855 27.791 10.6855Q27.7383 10.6855 27.6885 10.6328Q27.6387 10.5801 27.6387 10.5215ZM55.4238 11.3828L59.8887 2.86914L59.4023 2.86914L54.9082 11.3828L55.4238 11.3828ZM77.4492 9.7832Q77.2852 10.3457 77.2852 10.5215Q77.2852 10.5801 77.335 10.6328Q77.3848 10.6855 77.4375 10.6855Q77.5137 10.6855 77.6191 10.6094Q77.8184 10.4688 78.2871 9.90625L78.4863 10.0293Q78.0645 10.6152 77.6338 10.9785Q77.2031 11.3418 76.8281 11.3418Q76.6289 11.3418 76.5 11.2012Q76.3711 11.0605 76.3711 10.8027Q76.3711 10.4688 76.5469 9.90625L76.7754 9.17969Q75.9258 10.4922 75.2285 10.9961Q74.748 11.3418 74.3086 11.3418Q73.8633 11.3418 73.5322 10.9463Q73.2012 10.5508 73.2012 9.87109Q73.2012 8.99805 73.7578 8.00781Q74.3145 7.01758 75.2285 6.39648Q75.9492 5.89844 76.5527 5.89844Q76.8691 5.89844 77.0977 6.02734Q77.3262 6.15625 77.5488 6.45508L78.123 4.41602Q78.1875 4.19922 78.2285 4.07031Q78.2988 3.83594 78.2988 3.68359Q78.2988 3.56055 78.2109 3.47852Q78.0879 3.37891 77.8945 3.37891Q77.7598 3.37891 77.4492 3.41992L77.4492 3.20313L79.4648 2.86914L77.4492 9.7832ZM54.6621 3.57227Q54.9082 3.57227 55.0781 3.74219Q55.248 3.91211 55.248 4.1582Q55.248 4.39844 55.0752 4.57129Q54.9023 4.74414 54.6621 4.74414Q54.4219 4.74414 54.249 4.57129Q54.0762 4.39844 54.0762 4.1582Q54.0762 3.91211 54.2461 3.74219Q54.416 3.57227 54.6621 3.57227ZM92.0684 3.74219Q91.8984 3.57227 91.6523 3.57227Q91.4063 3.57227 91.2363 3.74219Q91.0664 3.91211 91.0664 4.1582Q91.0664 4.39844 91.2393 4.57129Q91.4121 4.74414 91.6523 4.74414Q91.8926 4.74414 92.0654 4.57129Q92.2383 4.39844 92.2383 4.1582Q92.2383 3.91211 92.0684 3.74219ZM5.02734 5.89844L5.43164 10.293Q6.45117 9.09766 7.06055 8.04883Q7.41797 7.43359 7.41797 7.1582Q7.41797 7.0293 7.35938 6.92969Q7.33594 6.87695 7.1748 6.77441Q7.01367 6.67188 6.94922 6.56348Q6.88477 6.45508 6.88477 6.33203Q6.88477 6.15039 7.01953 6.02441Q7.1543 5.89844 7.36523 5.89844Q7.60547 5.89844 7.77246 6.07715Q7.93945 6.25586 7.93945 6.55469Q7.93945 6.85938 7.85156 7.12305Q7.67578 7.62695 7.16602 8.42383Q6.54492 9.37891 5.88574 10.1963Q5.22656 11.0137 4.9043 11.3418L4.6875 11.3418L4.30664 7.28711L1.88672 11.3418L1.62891 11.3418Q1.58789 8.83984 1.37695 7.39258Q1.28906 6.78906 1.08398 6.60156Q0.9375 6.4668 0.638672 6.4668Q0.46875 6.4668 0.205078 6.50195L0.205078 6.29102L1.88672 5.89844Q2.23828 6.87695 2.34375 8.9043Q2.37891 9.67188 2.40234 9.87109L4.81055 5.89844L5.02734 5.89844ZM9.43359 8.99219Q9.39258 9.28516 9.39258 9.47852Q9.39258 10 9.76172 10.3662Q10.1309 10.7324 10.6582 10.7324Q11.0801 10.7324 11.4697 10.5596Q11.8594 10.3867 12.627 9.79492L12.75 9.96484Q11.3613 11.3418 10.1016 11.3418Q9.24609 11.3418 8.8125 10.8027Q8.37891 10.2637 8.37891 9.61328Q8.37891 8.74023 8.91797 7.82617Q9.45703 6.91211 10.2715 6.40527Q11.0859 5.89844 11.9473 5.89844Q12.5684 5.89844 12.8672 6.15039Q13.166 6.40234 13.166 6.74805Q13.166 7.23438 12.7793 7.67969Q12.2695 8.25977 11.2793 8.61719Q10.623 8.85742 9.43359 8.99219ZM30.7559 8.99219Q30.7148 9.28516 30.7148 9.47852Q30.7148 10 31.084 10.3662Q31.4531 10.7324 31.9805 10.7324Q32.4023 10.7324 32.792 10.5596Q33.1816 10.3867 33.9492 9.79492L34.0723 9.96484Q32.6836 11.3418 31.4238 11.3418Q30.5684 11.3418 30.1348 10.8027Q29.7012 10.2637 29.7012 9.61328Q29.7012 8.74023 30.2402 7.82617Q30.7793 6.91211 31.5938 6.40527Q32.4082 5.89844 33.2695 5.89844Q33.8906 5.89844 34.1895 6.15039Q34.4883 6.40234 34.4883 6.74805Q34.4883 7.23438 34.1016 7.67969Q33.5918 8.25977 32.6016 8.61719Q31.9453 8.85742 30.7559 8.99219ZM36.6035 5.89844L34.9102 6.26172L34.9512 6.4668Q35.2207 6.41406 35.3672 6.41406Q35.707 6.41406 35.8535 6.71289Q36.2988 7.63281 36.4395 11.3418L36.6563 11.3418Q37.8398 10.1172 37.957 9.98242Q38.8828 8.9043 39.2988 8.2627Q39.7148 7.62109 39.8672 7.17578Q39.9609 6.90039 39.9609 6.60156Q39.9609 6.30273 39.7734 6.10059Q39.5859 5.89844 39.3398 5.89844Q39.1348 5.89844 38.9854 6.04492Q38.8359 6.19141 38.8359 6.37891Q38.8359 6.625 39.1084 6.82422Q39.3809 7.02344 39.3809 7.17578Q39.3809 7.33398 39.3164 7.50977Q39.2402 7.74414 39.0469 8.05469Q38.9297 8.23633 38.1563 9.28516Q38.0156 9.47852 37.2832 10.2871Q37.2012 8.81055 37.1543 8.35352Q37.0547 7.44531 36.8965 6.7832Q36.7852 6.33203 36.6035 5.89844ZM50.6074 9.53125L51.627 6.03906L50.7363 6.03906L50.6074 6.48438Q50.2266 7.75586 49.8896 8.33887Q49.5527 8.92188 49.0342 9.58691Q48.5156 10.252 48.2051 10.4453Q47.8945 10.6387 47.7012 10.6387Q47.5781 10.6387 47.5049 10.5713Q47.4316 10.5039 47.4316 10.3926Q47.4316 10.1875 47.6602 9.41406L48.2109 7.52148Q48.4453 6.70703 48.4453 6.39063Q48.4453 6.17383 48.3076 6.03613Q48.1699 5.89844 47.9531 5.89844Q47.6367 5.89844 47.2617 6.15039Q46.7695 6.47266 46.3301 7.15234L46.5117 7.28125Q46.9453 6.71875 47.0684 6.63086Q47.1914 6.54297 47.3145 6.54297Q47.373 6.54297 47.4229 6.59277Q47.4727 6.64258 47.4727 6.71289Q47.4727 6.87109 47.2852 7.52148L46.7754 9.33203Q46.5176 10.2402 46.5176 10.6797Q46.5176 10.9668 46.7051 11.1543Q46.8926 11.3418 47.1621 11.3418Q47.7363 11.3418 48.4072 10.7207Q49.0781 10.0996 50.0742 8.46484Q49.6348 9.91797 49.541 10.3516Q49.4648 10.6797 49.4648 10.8789Q49.4648 11.084 49.5938 11.2129Q49.7227 11.3418 49.9512 11.3418Q50.25 11.3418 50.5723 11.1191Q51.0586 10.7734 51.5215 10.041L51.3457 9.90625Q50.8594 10.5391 50.7393 10.6299Q50.6191 10.7207 50.5195 10.7207Q50.4551 10.7207 50.417 10.6709Q50.3789 10.6211 50.3789 10.5156Q50.3789 10.3105 50.6074 9.53125ZM54.7383 5.89844L53.5781 10.0059Q53.4609 10.4219 53.4609 10.5039Q53.4609 10.5977 53.5166 10.6563Q53.5723 10.7148 53.6484 10.7148Q53.7363 10.7148 53.8594 10.6211Q54.1934 10.3574 54.5332 9.87109L54.7383 10.0059Q54.3398 10.6152 53.8008 11.0313Q53.4023 11.3418 53.0391 11.3418Q52.7988 11.3418 52.6465 11.1982Q52.4941 11.0547 52.4941 10.8379Q52.4941 10.6211 52.6406 10.1172L53.4023 7.49219Q53.5898 6.84766 53.5898 6.68359Q53.5898 6.55469 53.499 6.47266Q53.4082 6.39063 53.25 6.39063Q53.1211 6.39063 52.7168 6.45508L52.7168 6.22656L54.7383 5.89844ZM64.2949 6.03906L63.2754 9.53125Q63.0469 10.3105 63.0469 10.5156Q63.0469 10.6211 63.085 10.6709Q63.123 10.7207 63.1875 10.7207Q63.2871 10.7207 63.4072 10.6299Q63.5273 10.5391 64.0137 9.90625L64.1895 10.041Q63.7266 10.7734 63.2402 11.1191Q62.918 11.3418 62.6191 11.3418Q62.3906 11.3418 62.2617 11.2129Q62.1328 11.084 62.1328 10.8789Q62.1328 10.6797 62.209 10.3516Q62.3027 9.91797 62.7422 8.46484Q61.7461 10.0996 61.0752 10.7207Q60.4043 11.3418 59.8301 11.3418Q59.5605 11.3418 59.373 11.1543Q59.1855 10.9668 59.1855 10.6797Q59.1855 10.2402 59.4434 9.33203L59.9531 7.52148Q60.1406 6.87109 60.1406 6.71289Q60.1406 6.64258 60.0908 6.59277Q60.041 6.54297 59.9824 6.54297Q59.8594 6.54297 59.7363 6.63086Q59.6133 6.71875 59.1797 7.28125L58.998 7.15234Q59.4375 6.47266 59.9297 6.15039Q60.3047 5.89844 60.6211 5.89844Q60.8379 5.89844 60.9756 6.03613Q61.1133 6.17383 61.1133 6.39063Q61.1133 6.70703 60.8789 7.52148L60.3281 9.41406Q60.0996 10.1875 60.0996 10.3926Q60.0996 10.5039 60.1729 10.5713Q60.2461 10.6387 60.3691 10.6387Q60.5625 10.6387 60.873 10.4453Q61.1836 10.252 61.7021 9.58691Q62.2207 8.92188 62.5576 8.33887Q62.8945 7.75586 63.2754 6.48438L63.4043 6.03906L64.2949 6.03906ZM67.1602 6.50781Q67.0137 6.20313 66.7266 5.89844L65.1621 6.17383L65.1621 6.38477Q65.3379 6.37305 65.4727 6.37305Q65.8945 6.37305 66.1113 6.53125Q66.3281 6.68945 66.4629 7.07031Q66.4922 7.15234 66.8555 8.57617Q66.709 8.9043 66.2344 9.64258Q65.7598 10.3809 65.4844 10.6035Q65.373 10.6973 65.3027 10.6973Q65.2207 10.6973 65.0684 10.5625Q64.8574 10.375 64.6699 10.375Q64.4824 10.375 64.3535 10.5039Q64.2246 10.6328 64.2246 10.8262Q64.2246 11.043 64.3652 11.1719Q64.5586 11.3418 64.793 11.3418Q65.127 11.3418 65.4844 11.0488Q66.0352 10.5918 66.9492 9.00391Q67.3359 10.7441 67.459 10.9727Q67.6523 11.3418 67.9805 11.3418Q68.2031 11.3418 68.5254 11.084Q69.0938 10.627 69.4629 9.93555L69.2578 9.83008Q69.0293 10.2637 68.707 10.5332Q68.543 10.668 68.4199 10.668Q68.3438 10.668 68.2676 10.5771Q68.1914 10.4863 68.0801 10.0234L67.5996 8.00781Q68.1035 7.13477 68.4668 6.83008Q68.6602 6.66602 68.8008 6.66602Q68.8945 6.66602 69.1699 6.75977Q69.3105 6.8125 69.4336 6.8125Q69.6445 6.8125 69.8086 6.66602Q69.8965 6.58398 69.8965 6.36133Q69.8965 6.16797 69.7471 6.0332Q69.5977 5.89844 69.3457 5.89844Q69.1758 5.89844 69.0352 5.95703Q68.8125 6.05078 68.5195 6.30566Q68.2266 6.56055 68.0215 6.8418L67.5059 7.61523Q67.2656 6.71875 67.1602 6.50781ZM80.3613 9.47852Q80.3613 9.28516 80.4023 8.99219Q81.5918 8.85742 82.248 8.61719Q83.2383 8.25977 83.748 7.67969Q84.1348 7.23438 84.1348 6.74805Q84.1348 6.40234 83.8359 6.15039Q83.5371 5.89844 82.916 5.89844Q82.0547 5.89844 81.2402 6.40527Q80.4258 6.91211 79.8867 7.82617Q79.3477 8.74023 79.3477 9.61328Q79.3477 10.2637 79.7813 10.8027Q80.2148 11.3418 81.0703 11.3418Q82.3301 11.3418 83.7188 9.96484L83.5957 9.79492Q82.8281 10.3867 82.4385 10.5596Q82.0488 10.7324 81.627 10.7324Q81.0996 10.7324 80.7305 10.3662Q80.3613 10 80.3613 9.47852ZM88.6523 5.89844L88.2949 7.69727L88.0781 7.69727Q88.0488 6.91211 87.7441 6.55469Q87.4395 6.19727 86.9883 6.19727Q86.625 6.19727 86.4111 6.39648Q86.1973 6.5957 86.1973 6.87695Q86.1973 7.07031 86.2822 7.24609Q86.3672 7.42188 86.6543 7.73828Q87.416 8.57031 87.6387 8.99219Q87.8613 9.41406 87.8613 9.78906Q87.8613 10.3984 87.3545 10.8701Q86.8477 11.3418 86.0742 11.3418Q85.6523 11.3418 85.1016 11.1426Q84.9082 11.0723 84.8027 11.0723Q84.5391 11.0723 84.4043 11.3418L84.1875 11.3418L84.5449 9.44336L84.7617 9.44336Q84.7969 10.334 85.1309 10.7031Q85.4648 11.0723 86.0449 11.0723Q86.4902 11.0723 86.751 10.8232Q87.0117 10.5742 87.0117 10.2109Q87.0117 9.97656 86.918 9.77734Q86.7539 9.42578 86.2295 8.80469Q85.7051 8.18359 85.5557 7.87305Q85.4063 7.5625 85.4063 7.25195Q85.4063 6.68359 85.8193 6.29102Q86.2324 5.89844 86.8828 5.89844Q87.0703 5.89844 87.2227 5.92773Q87.3047 5.94531 87.6064 6.05957Q87.9082 6.17383 88.0078 6.17383Q88.2598 6.17383 88.4297 5.89844L88.6523 5.89844ZM90.5684 10.0059L91.7285 5.89844L89.707 6.22656L89.707 6.45508Q90.1113 6.39063 90.2402 6.39063Q90.3984 6.39063 90.4893 6.47266Q90.5801 6.55469 90.5801 6.68359Q90.5801 6.84766 90.3926 7.49219L89.6309 10.1172Q89.4844 10.6211 89.4844 10.8379Q89.4844 11.0547 89.6367 11.1982Q89.7891 11.3418 90.0293 11.3418Q90.3926 11.3418 90.791 11.0313Q91.3301 10.6152 91.7285 10.0059L91.5234 9.87109Q91.1836 10.3574 90.8496 10.6211Q90.7266 10.7148 90.6387 10.7148Q90.5625 10.7148 90.5068 10.6563Q90.4512 10.5977 90.4512 10.5039Q90.4512 10.4219 90.5684 10.0059ZM98.5547 6.26172L98.3848 6.87109L97.4063 6.87109Q97.5176 7.1875 97.5176 7.46289Q97.5176 8.23633 96.8613 8.83984Q96.1992 9.44336 95.0449 9.50781Q94.4238 9.69531 94.1133 9.95313Q93.9961 10.0469 93.9961 10.1465Q93.9961 10.2637 94.1016 10.3604Q94.207 10.457 94.6348 10.5566L95.7715 10.8203Q96.7148 11.043 97.0195 11.3477Q97.3184 11.6582 97.3184 12.0625Q97.3184 12.543 96.9639 12.9414Q96.6094 13.3398 95.9268 13.5654Q95.2441 13.791 94.418 13.791Q93.6914 13.791 93.0938 13.6182Q92.4961 13.4453 92.2383 13.1523Q91.9805 12.8594 91.9805 12.5488Q91.9805 12.2969 92.1475 12.0244Q92.3145 11.752 92.5664 11.5762Q92.7246 11.4648 93.4629 11.0488Q93.1934 10.8379 93.1934 10.5859Q93.1934 10.3516 93.4307 10.0879Q93.668 9.82422 94.4355 9.50781Q93.791 9.38477 93.4131 8.96875Q93.0352 8.55273 93.0352 8.04297Q93.0352 7.21094 93.7646 6.55469Q94.4941 5.89844 95.707 5.89844Q96.1465 5.89844 96.4277 5.98633Q96.709 6.07422 96.9727 6.26172L98.5547 6.26172ZM100.172 8.56445L100.951 5.89844L98.9238 6.26172L98.959 6.47266L99.1816 6.4375Q99.3574 6.41406 99.4277 6.41406Q99.5801 6.41406 99.6826 6.51074Q99.7852 6.60742 99.7852 6.73633Q99.7852 6.87109 99.5977 7.5332L98.5313 11.2012L99.4102 11.2012L99.7031 10.2344Q99.8848 9.64258 100.16 9.14453Q100.682 8.20117 101.15 7.59473Q101.619 6.98828 102.053 6.72461Q102.281 6.58398 102.445 6.58398Q102.557 6.58398 102.633 6.65723Q102.709 6.73047 102.709 6.84766Q102.709 7.09375 102.58 7.5332L101.9 9.88867Q101.701 10.5742 101.701 10.8555Q101.701 11.0781 101.83 11.21Q101.959 11.3418 102.176 11.3418Q102.445 11.3418 102.785 11.1133Q103.271 10.7793 103.816 10L103.635 9.88867Q103.266 10.3926 102.955 10.6387Q102.855 10.7148 102.785 10.7148Q102.732 10.7148 102.686 10.6592Q102.639 10.6035 102.639 10.5215Q102.639 10.4277 102.762 10L103.477 7.5332Q103.646 6.94727 103.646 6.5957Q103.646 6.28516 103.456 6.0918Q103.266 5.89844 102.973 5.89844Q102.434 5.89844 101.851 6.41406Q101.268 6.92969 100.172 8.56445ZM105.732 8.99219Q105.691 9.28516 105.691 9.47852Q105.691 10 106.061 10.3662Q106.43 10.7324 106.957 10.7324Q107.379 10.7324 107.769 10.5596Q108.158 10.3867 108.926 9.79492L109.049 9.96484Q107.66 11.3418 106.4 11.3418Q105.545 11.3418 105.111 10.8027Q104.678 10.2637 104.678 9.61328Q104.678 8.74023 105.217 7.82617Q105.756 6.91211 106.57 6.40527Q107.385 5.89844 108.246 5.89844Q108.867 5.89844 109.166 6.15039Q109.465 6.40234 109.465 6.74805Q109.465 7.23438 109.078 7.67969Q108.568 8.25977 107.578 8.61719Q106.922 8.85742 105.732 8.99219ZM112.277 5.89844L110.256 6.22656L110.297 6.44336Q110.625 6.39063 110.748 6.39063Q110.941 6.39063 111.059 6.48438Q111.146 6.55469 111.146 6.66016Q111.146 6.92969 110.959 7.5625L109.875 11.2012L110.771 11.2012L110.959 10.4629Q110.994 10.3281 111.24 9.66016Q111.416 9.17383 111.662 8.78711Q112.23 7.87305 112.717 7.29883Q113.027 6.92383 113.18 6.8418Q113.268 6.79492 113.367 6.79492Q113.432 6.79492 113.479 6.8418Q113.52 6.87695 113.531 6.98828Q113.555 7.16992 113.651 7.25781Q113.748 7.3457 113.883 7.3457Q114.146 7.3457 114.287 7.08203Q114.486 6.73047 114.486 6.34375Q114.486 6.12695 114.375 6.0127Q114.264 5.89844 114.07 5.89844Q113.771 5.89844 113.297 6.29688Q112.459 6.99414 111.434 8.74609L112.277 5.89844ZM96.5215 7.18164Q96.5215 6.71289 96.2607 6.44336Q96 6.17383 95.5781 6.17383Q94.916 6.17383 94.4854 6.83887Q94.0547 7.50391 94.0547 8.22461Q94.0547 8.67578 94.3301 8.96289Q94.6055 9.25 94.998 9.25Q95.3086 9.25 95.5986 9.08008Q95.8887 8.91016 96.0879 8.61133Q96.2871 8.3125 96.4043 7.84961Q96.5215 7.38672 96.5215 7.18164ZM9.47461 8.70508Q10.3418 8.60547 10.8867 8.36523Q11.6074 8.04297 11.9678 7.59473Q12.3281 7.14648 12.3281 6.74219Q12.3281 6.49609 12.1729 6.34375Q12.0176 6.19141 11.7305 6.19141Q11.1328 6.19141 10.4619 6.82715Q9.79102 7.46289 9.47461 8.70508ZM30.7969 8.70508Q31.6641 8.60547 32.209 8.36523Q32.9297 8.04297 33.29 7.59473Q33.6504 7.14648 33.6504 6.74219Q33.6504 6.49609 33.4951 6.34375Q33.3398 6.19141 33.0527 6.19141Q32.4551 6.19141 31.7842 6.82715Q31.1133 7.46289 30.7969 8.70508ZM81.8555 8.36523Q81.3105 8.60547 80.4434 8.70508Q80.7598 7.46289 81.4307 6.82715Q82.1016 6.19141 82.6992 6.19141Q82.9863 6.19141 83.1416 6.34375Q83.2969 6.49609 83.2969 6.74219Q83.2969 7.14648 82.9365 7.59473Q82.5762 8.04297 81.8555 8.36523ZM105.773 8.70508Q106.641 8.60547 107.186 8.36523Q107.906 8.04297 108.267 7.59473Q108.627 7.14648 108.627 6.74219Q108.627 6.49609 108.472 6.34375Q108.316 6.19141 108.029 6.19141Q107.432 6.19141 106.761 6.82715Q106.09 7.46289 105.773 8.70508ZM27.4277 6.42578Q27.6445 6.6543 27.6445 7.0293Q27.6445 8.01367 26.7246 9.33203Q25.8047 10.6504 25.1953 10.6504Q24.9258 10.6504 24.7324 10.4189Q24.5391 10.1875 24.5391 9.74805Q24.5391 8.63477 25.3389 7.41602Q26.1387 6.19727 26.877 6.19727Q27.2109 6.19727 27.4277 6.42578ZM77.291 7.0293Q77.291 6.6543 77.0742 6.42578Q76.8574 6.19727 76.5234 6.19727Q75.7852 6.19727 74.9854 7.41602Q74.1855 8.63477 74.1855 9.74805Q74.1855 10.1875 74.3789 10.4189Q74.5723 10.6504 74.8418 10.6504Q75.4512 10.6504 76.3711 9.33203Q77.291 8.01367 77.291 7.0293ZM15.5566 11.0664Q15.1113 11.0664 14.5254 10.7441L15.2871 8.10742Q15.5098 7.32813 16.0313 6.8916Q16.5527 6.45508 17.0977 6.45508Q17.4609 6.45508 17.7275 6.75977Q17.9941 7.06445 17.9941 7.60352Q17.9941 8.51758 17.5869 9.41406Q17.1797 10.3105 16.626 10.6885Q16.0723 11.0664 15.5566 11.0664ZM22.9219 8.20703L22.6816 8.98633L19.6465 8.98633L19.8867 8.20703L22.9219 8.20703ZM39.8555 12.5195Q40.2949 12.3203 40.5703 12.0156Q40.7813 11.7813 40.7813 11.5645Q40.7813 11.459 40.7461 11.3711Q40.7227 11.3242 40.582 11.1836Q40.4414 11.043 40.4238 10.9902Q40.3828 10.8906 40.3828 10.7617Q40.3828 10.5098 40.5557 10.3281Q40.7285 10.1465 40.9629 10.1465Q41.2031 10.1465 41.3877 10.3398Q41.5723 10.5332 41.5723 10.8262Q41.5723 11.3477 41.1621 11.8809Q40.752 12.4141 39.9727 12.707L39.8555 12.5195ZM93.7148 11.2012Q93.2402 11.418 92.9971 11.7578Q92.7539 12.0977 92.7539 12.4258Q92.7539 12.8125 93.1055 13.0645Q93.6094 13.4277 94.582 13.4277Q95.4199 13.4277 96.0146 13.1436Q96.6094 12.8594 96.6094 12.4082Q96.6094 12.1797 96.3896 11.9746Q96.1699 11.7695 95.5371 11.6406Q95.1914 11.5703 93.7148 11.2012Z" />
    </g>
  </g>
</svg>