<?xml version="1.0" encoding="utf-8"?>
<svg width="323px" height="95.5px" viewBox="0 0 323 95.5" version="1.1" xmlns:xlink="http://www.w3.org/1999/xlink" xmlns="http://www.w3.org/2000/svg">
  <g id="Group-2" transform="translate(4.5 4.5)">
    <g id="FOCUS">
      <path d="M92.9219 39.0156Q92.9219 50.1406 86.5469 56.6875Q80.1719 63.2344 68.9219 63.2344Q57.7031 63.2344 51.3281 56.6875Q44.9531 50.1406 44.9531 39.0156Q44.9531 27.7969 51.3281 21.2813Q57.7031 14.7656 68.9219 14.7656Q80.1094 14.7656 86.5156 21.2813Q92.9219 27.7969 92.9219 39.0156ZM113.531 61.6406Q117.922 63.1719 123.109 63.1719Q126.609 63.1719 128.609 62.8281Q130.609 62.4844 132.891 61.8281Q134.641 61.3281 136.234 60.6406Q137.828 59.9531 139.578 59.1719L139.578 48.0469L138.328 48.0469Q137.484 48.793 136.172 49.8191Q134.859 50.8452 133.328 51.7466Q131.516 52.8662 129.375 53.519Q127.234 54.1719 125.047 54.1719Q122.766 54.1719 120.422 53.439Q118.078 52.7061 116.172 50.9907Q114.297 49.3071 113.063 46.3755Q111.828 43.4438 111.828 39.0781Q111.828 34.8989 112.969 31.9675Q114.109 29.0361 115.953 27.2588Q117.891 25.4185 120.172 24.6233Q122.453 23.8281 124.984 23.8281Q127.266 23.8281 129.266 24.5122Q131.266 25.1963 132.984 26.1909Q134.672 27.186 136 28.2122Q137.328 29.2383 138.203 29.9844L139.578 29.9844L139.578 18.7031Q138.297 18.0781 136.594 17.3438Q134.891 16.6094 132.797 16.0156Q130.797 15.4844 128.438 15.1563Q126.078 14.8281 123.141 14.8281Q117.828 14.8281 113.344 16.5156Q108.859 18.2031 105.828 21.2969Q102.672 24.5156 101.016 29.0156Q99.3594 33.5156 99.3594 39.0469Q99.3594 44.9844 101.094 49.5156Q102.828 54.0469 105.984 57.0781Q109.141 60.1094 113.531 61.6406ZM231.781 58.8125Q237.609 54.5156 237.609 47.6406Q237.609 42.8281 235.063 39.8125Q232.516 36.7969 227.172 35.0469Q224.453 34.1719 222.094 33.6719Q219.734 33.1719 217.172 32.6406Q213.266 31.8281 211.859 30.8438Q210.453 29.8594 210.453 28.0156Q210.453 26.7969 211.328 25.8438Q212.203 24.8906 213.422 24.4219Q214.797 23.8594 216.281 23.6563Q217.766 23.4531 219.266 23.4531Q223.516 23.4531 227.594 24.9688Q231.672 26.4844 234.484 28.7344L235.766 28.7344L235.766 18.0156Q232.484 16.6719 228 15.7813Q223.516 14.8906 218.922 14.8906Q209.766 14.8906 203.938 19Q198.109 23.1094 198.109 29.6094Q198.109 34.4531 200.688 37.7188Q203.266 40.9844 209.141 42.8906Q211.703 43.7344 214.625 44.2813Q217.547 44.8281 220.172 45.4531Q222.672 46.0469 223.969 47.1563Q225.266 48.2656 225.266 49.7969Q225.266 51.4531 224.375 52.2969Q223.484 53.1406 222.109 53.7031Q220.984 54.1406 219.203 54.3281Q217.422 54.5156 216.328 54.5156Q212.078 54.5156 207.469 52.9219Q202.859 51.3281 199.141 48.3594L197.828 48.3594L197.828 59.5156Q201.578 61.0781 205.875 62.0938Q210.172 63.1094 215.953 63.1094Q225.953 63.1094 231.781 58.8125ZM39.3906 24.7344L17.9844 24.7344L17.9844 33.3906L37.8281 33.3906L37.8281 42.3906L17.9844 42.3906L17.9844 62.2656L6.04688 62.2656L6.04688 15.7344L39.3906 15.7344L39.3906 24.7344ZM189.141 45.4219Q189.141 54.0469 183.891 58.6406Q178.641 63.2344 168.422 63.2344Q158.203 63.2344 152.969 58.6406Q147.734 54.0469 147.734 45.4531L147.734 15.7344L159.797 15.7344L159.797 44.7656Q159.797 49.6094 161.828 51.9844Q163.859 54.3594 168.422 54.3594Q172.922 54.3594 175 52.0781Q177.078 49.7969 177.078 44.7656L177.078 15.7344L189.141 15.7344L189.141 45.4219ZM77.0156 50.7969Q78.7656 48.6719 79.6094 45.7813Q80.4531 42.8906 80.4531 38.9844Q80.4531 34.7969 79.4844 31.8594Q78.5156 28.9219 76.9531 27.1094Q75.3594 25.2344 73.2813 24.3906Q71.2031 23.5469 68.9531 23.5469Q66.6719 23.5469 64.6563 24.3594Q62.6406 25.1719 60.9531 27.0469Q59.3906 28.7969 58.4063 31.875Q57.4219 34.9531 57.4219 39.0156Q57.4219 43.1719 58.375 46.0938Q59.3281 49.0156 60.8906 50.8594Q62.4531 52.7031 64.5469 53.5781Q66.6406 54.4531 68.9531 54.4531Q71.2656 54.4531 73.3594 53.5625Q75.4531 52.6719 77.0156 50.7969Z" />
    </g>
    <g id="fashion-stores(BE-UNIQUE)" transform="translate(151 71.5)">
      <path d="M3.73877 6.87793L3.85303 6.45898L2.91992 6.45898Q3.37695 4.97363 3.54834 4.59912Q3.88477 3.88184 4.31006 3.54541Q4.62744 3.2915 5.02734 3.2915Q5.18604 3.2915 5.26855 3.35498Q5.32568 3.39942 5.32568 3.48828Q5.32568 3.53906 5.24316 3.68823Q5.16064 3.8374 5.16064 3.93896Q5.16064 4.09766 5.28442 4.21191Q5.4082 4.32617 5.60498 4.32617Q5.8335 4.32617 5.97949 4.17383Q6.12549 4.02148 6.12549 3.79932Q6.12549 3.51367 5.8335 3.26929Q5.5415 3.0249 5.05908 3.0249Q4.60205 3.0249 4.08472 3.30737Q3.56738 3.58984 3.09766 4.15479Q2.75488 4.57373 2.38037 5.33545Q2.10107 5.90039 1.92651 6.10669Q1.75195 6.31299 1.54248 6.38599Q1.33301 6.45898 0.806152 6.45898L0.717285 6.87793L1.82178 6.87793L0.717285 11.1753Q0.330078 12.667 0.241211 12.9336Q0.0317383 13.5747 -0.203125 13.9143Q-0.437988 14.2539 -0.739502 14.4253Q-1.04102 14.5967 -1.31396 14.5967Q-1.43457 14.5967 -1.4917 14.5522Q-1.53613 14.5205 -1.53613 14.4634Q-1.53613 14.4189 -1.43457 14.3301Q-1.30127 14.2095 -1.30127 14.0698Q-1.30127 13.9302 -1.4187 13.8223Q-1.53613 13.7144 -1.70752 13.7144Q-1.94238 13.7144 -2.10425 13.8635Q-2.26611 14.0127 -2.26611 14.2158Q-2.26611 14.4697 -2.06934 14.6284Q-1.80273 14.8569 -1.42188 14.8569Q-0.837891 14.8569 -0.253906 14.4443Q0.51416 13.9048 1.18066 12.4893Q1.65039 11.4863 2.11377 9.65186L2.81201 6.87793L3.73877 6.87793ZM19.0049 6.87793Q18.3574 7.44922 17.2021 9.18848L18.9858 3.0249L16.7896 3.39307L16.7896 3.64063L16.9229 3.62158Q17.1577 3.5835 17.272 3.5835Q17.4688 3.5835 17.6052 3.71045Q17.7417 3.8374 17.7417 4.00244L17.5195 4.78955L15.4312 12.0513L16.3833 12.0513L16.7896 10.75Q16.9609 10.2231 17.2275 9.77881Q18.0908 8.38867 18.2432 8.19189Q18.8081 7.46826 19.2397 7.20166Q19.4746 7.06201 19.6587 7.06201Q19.7856 7.06201 19.865 7.13818Q19.9443 7.21436 19.9443 7.34131Q19.9443 7.61426 19.8047 8.09033L19.0747 10.6294Q18.8525 11.3911 18.8525 11.6704Q18.8525 11.9053 19.0017 12.0544Q19.1509 12.2036 19.3857 12.2036Q19.6016 12.2036 19.8777 12.0481Q20.1538 11.8926 20.5378 11.4895Q20.9219 11.0864 21.1377 10.75L20.9409 10.6294Q20.5854 11.1245 20.2236 11.4038Q20.1157 11.4863 20.0332 11.4863Q19.9634 11.4863 19.9094 11.4292Q19.8555 11.3721 19.8555 11.2832Q19.8555 11.2324 20.0015 10.75L20.7759 8.09033Q20.9536 7.49365 20.9536 7.07471Q20.9536 6.72559 20.7505 6.51611Q20.5474 6.30664 20.2427 6.30664Q19.6523 6.30664 19.0049 6.87793ZM74.8198 14.8315L75.0356 14.73Q74.3184 13.105 74.3184 11.9116Q74.3184 10.3501 74.9087 8.4458Q75.499 6.5415 76.4258 5.1958Q77.1685 4.1167 78.3428 3.24707L78.1904 3.0249Q75.5879 4.90381 74.4263 6.88428Q73.4805 8.50293 73.4805 10.5469Q73.4805 11.4229 73.7344 12.2861Q74.0645 13.3906 74.8198 14.8315ZM148.345 3.0249L148.129 3.14551Q148.846 4.77051 148.846 5.96387Q148.846 7.52539 148.256 9.43286Q147.666 11.3403 146.739 12.686Q145.996 13.7588 144.822 14.6348L144.974 14.8315Q147.57 12.9526 148.738 10.9658Q149.684 9.35352 149.684 7.30322Q149.684 6.42725 149.424 5.56396Q149.1 4.45947 148.345 3.0249ZM123.322 12.248L121.685 13.5747Q122.072 13.5049 122.402 13.5049Q122.719 13.5049 122.989 13.543Q123.259 13.5811 124.144 13.781Q125.03 13.981 125.69 13.981Q126.395 13.981 126.886 13.7366Q127.378 13.4922 127.842 12.9209L128.051 13.0225Q127.397 13.9619 126.509 14.3777Q125.62 14.7935 124.624 14.7935Q124.071 14.7935 123.113 14.5776Q121.646 14.2539 121.063 14.2539Q120.84 14.2539 120.701 14.2856Q120.561 14.3174 120.282 14.438L120.136 14.2666L122.738 12.21Q121.532 12.0449 120.91 11.1499Q120.288 10.2549 120.288 9.23926Q120.288 7.84912 121.129 6.36377Q121.97 4.87842 123.281 4.06274Q124.592 3.24707 125.855 3.24707Q126.794 3.24707 127.458 3.62793Q128.121 4.00879 128.483 4.7356Q128.845 5.4624 128.845 6.22412Q128.845 7.68408 128.013 9.18213Q127.182 10.6802 125.947 11.4514Q124.712 12.2227 123.322 12.248ZM78.8442 3.67871L78.9331 3.44385L82.0054 3.44385Q82.7798 3.44385 83.386 3.68506Q83.9922 3.92627 84.2937 4.35791Q84.5952 4.78955 84.5952 5.27197Q84.5952 6.01465 84.0588 6.6145Q83.5225 7.21436 82.3101 7.5Q83.0908 7.79199 83.459 8.27441Q83.8271 8.75684 83.8271 9.33447Q83.8271 9.97559 83.4971 10.5596Q83.167 11.1436 82.6497 11.4673Q82.1323 11.791 81.4023 11.9434Q80.8818 12.0513 79.7773 12.0513L76.6226 12.0513L76.7051 11.8164Q77.2002 11.8037 77.3779 11.7212Q77.6318 11.6133 77.7397 11.4355Q77.8921 11.1943 78.146 10.3311L79.6885 5.11963Q79.8853 4.45947 79.8853 4.19287Q79.8853 3.95801 79.7107 3.82153Q79.5361 3.68506 79.0474 3.68506Q78.9395 3.68506 78.8442 3.67871ZM88.0864 7.30957L89.0703 3.90723L90.1621 3.90723Q91.2603 3.90723 91.5649 4.02148Q91.9775 4.17383 92.1934 4.46582Q92.3584 4.69434 92.3584 5.03076Q92.3584 5.22754 92.314 5.51953L92.5488 5.51953L93.082 3.44385L86.8994 3.44385L86.8232 3.67871L86.9565 3.67871Q87.4453 3.67871 87.6135 3.81519Q87.7817 3.95166 87.7817 4.19287Q87.7817 4.52295 87.604 5.15137L86.0933 10.3438Q85.8584 11.1753 85.687 11.4355Q85.5728 11.6133 85.3188 11.7275Q85.1475 11.8037 84.6523 11.8164L84.5698 12.0513L91.2222 12.0513L92.0347 9.6582L91.7998 9.6582Q91.2095 10.7437 90.4636 11.1816Q89.7178 11.6196 88.48 11.6196L87.7183 11.6196Q87.2866 11.6196 87.1787 11.5308Q87.02 11.4038 87.02 11.2388Q87.02 11.0229 87.1406 10.6104L87.9722 7.76025L88.791 7.76025Q89.4131 7.76025 89.6067 7.8396Q89.8003 7.91895 89.9114 8.08398Q90.0225 8.24902 90.0225 8.52197Q90.0225 8.80127 89.9082 9.19482L90.1621 9.19482L91.0444 6.07178L90.8096 6.07178Q90.5303 6.78272 90.1431 7.04614Q89.7559 7.30957 88.8926 7.30957L88.0864 7.30957ZM102.47 3.44385L98.833 3.44385L98.7695 3.67871Q99.4995 3.7168 99.6804 3.84692Q99.8613 3.97705 99.8613 4.21191Q99.8613 4.51025 99.6836 5.14502L98.833 8.07129Q98.6362 8.75684 98.5854 9.03613Q98.5156 9.46143 98.5156 9.83594Q98.5156 10.7817 99.3091 11.5149Q100.103 12.248 101.397 12.248Q102.521 12.248 103.28 11.7498Q104.038 11.2515 104.438 10.512Q104.838 9.77246 105.289 8.21729L106.222 5.02441Q106.418 4.33887 106.577 4.10083Q106.736 3.86279 106.948 3.77075Q107.161 3.67871 107.644 3.67871L107.713 3.44385L104.978 3.44385L104.908 3.67871Q105.498 3.71045 105.692 3.85962Q105.885 4.00879 105.885 4.21826Q105.885 4.5166 105.6 5.50049L104.838 8.12842Q104.616 8.87744 104.324 9.6106Q104.032 10.3438 103.679 10.7722Q103.327 11.2007 102.832 11.4387Q102.337 11.6768 101.708 11.6768Q100.75 11.6768 100.179 11.1467Q99.6074 10.6167 99.6074 9.84863Q99.6074 9.49951 99.6836 9.09326Q99.728 8.83936 99.9629 8.02686L100.845 4.97998Q101.029 4.34522 101.198 4.11035Q101.366 3.87549 101.604 3.78345Q101.842 3.69141 102.4 3.67871L102.47 3.44385ZM110.246 3.44385L112.906 10.1914L114.347 5.15137Q114.524 4.5293 114.524 4.18652Q114.524 3.95166 114.359 3.81836Q114.194 3.68506 113.744 3.68506Q113.667 3.68506 113.585 3.67871L113.655 3.44385L116.422 3.44385L116.346 3.67871Q115.915 3.67236 115.705 3.76758Q115.407 3.90088 115.261 4.11035Q115.058 4.40869 114.848 5.15137L112.823 12.248L112.595 12.248L109.732 4.98633L108.202 10.3501Q108.031 10.9595 108.031 11.2832Q108.031 11.5244 108.186 11.6482Q108.342 11.772 108.926 11.8164L108.862 12.0513L106.158 12.0513L106.247 11.8164Q106.755 11.8037 106.926 11.7275Q107.187 11.6133 107.313 11.4292Q107.498 11.1499 107.726 10.3501L109.434 4.36426Q109.186 3.9834 108.904 3.84058Q108.621 3.69775 108.024 3.67871L108.094 3.44385L110.246 3.44385ZM118.327 12.0513L118.396 11.8164Q117.844 11.7783 117.67 11.718Q117.495 11.6577 117.416 11.5466Q117.336 11.4355 117.336 11.2769Q117.336 11.0801 117.54 10.3628L119.031 5.17041Q119.266 4.36426 119.415 4.12939Q119.564 3.89453 119.85 3.76758Q120.047 3.67236 120.453 3.67871L120.523 3.44385L117.197 3.44385L117.121 3.67871Q117.609 3.67871 117.778 3.73901Q117.946 3.79932 118.028 3.91357Q118.111 4.02783 118.111 4.19287Q118.111 4.52295 117.92 5.17041L116.422 10.3628Q116.2 11.1309 115.991 11.4292Q115.857 11.6196 115.578 11.7275Q115.407 11.8037 114.874 11.8164L114.785 12.0513L118.327 12.0513ZM134.247 3.44385L130.609 3.44385L130.546 3.67871Q131.276 3.7168 131.457 3.84692Q131.638 3.97705 131.638 4.21191Q131.638 4.51025 131.46 5.14502L130.609 8.07129Q130.413 8.75684 130.362 9.03613Q130.292 9.46143 130.292 9.83594Q130.292 10.7817 131.085 11.5149Q131.879 12.248 133.174 12.248Q134.297 12.248 135.056 11.7498Q135.814 11.2515 136.214 10.512Q136.614 9.77246 137.065 8.21729L137.998 5.02441Q138.195 4.33887 138.354 4.10083Q138.512 3.86279 138.725 3.77075Q138.938 3.67871 139.42 3.67871L139.49 3.44385L136.754 3.44385L136.684 3.67871Q137.274 3.71045 137.468 3.85962Q137.662 4.00879 137.662 4.21826Q137.662 4.5166 137.376 5.50049L136.614 8.12842Q136.392 8.87744 136.1 9.6106Q135.808 10.3438 135.456 10.7722Q135.104 11.2007 134.608 11.4387Q134.113 11.6768 133.485 11.6768Q132.526 11.6768 131.955 11.1467Q131.384 10.6167 131.384 9.84863Q131.384 9.49951 131.46 9.09326Q131.504 8.83936 131.739 8.02686L132.622 4.97998Q132.806 4.34522 132.974 4.11035Q133.142 3.87549 133.38 3.78345Q133.618 3.69141 134.177 3.67871L134.247 3.44385ZM142.505 3.90723L141.521 7.30957L142.327 7.30957Q143.19 7.30957 143.578 7.04614Q143.965 6.78272 144.244 6.07178L144.479 6.07178L143.597 9.19482L143.343 9.19482Q143.457 8.80127 143.457 8.52197Q143.457 8.24902 143.346 8.08398Q143.235 7.91895 143.041 7.8396Q142.848 7.76025 142.226 7.76025L141.407 7.76025L140.575 10.6104Q140.455 11.0229 140.455 11.2388Q140.455 11.4038 140.613 11.5308Q140.721 11.6196 141.153 11.6196L141.915 11.6196Q143.152 11.6196 143.898 11.1816Q144.644 10.7437 145.234 9.6582L145.469 9.6582L144.657 12.0513L138.004 12.0513L138.087 11.8164Q138.582 11.8037 138.753 11.7275Q139.007 11.6133 139.122 11.4355Q139.293 11.1753 139.528 10.3438L141.039 5.15137Q141.216 4.52295 141.216 4.19287Q141.216 3.95166 141.048 3.81519Q140.88 3.67871 140.391 3.67871L140.258 3.67871L140.334 3.44385L146.517 3.44385L145.983 5.51953L145.749 5.51953Q145.793 5.22754 145.793 5.03076Q145.793 4.69434 145.628 4.46582Q145.412 4.17383 145 4.02148Q144.695 3.90723 143.597 3.90723L142.505 3.90723ZM125.703 3.65332Q125.068 3.65332 124.462 3.96753Q123.855 4.28174 123.259 4.99585Q122.662 5.70996 122.186 6.86523Q121.608 8.28711 121.608 9.55029Q121.608 10.4517 122.072 11.1467Q122.535 11.8418 123.494 11.8418Q124.065 11.8418 124.624 11.5562Q125.182 11.2705 125.779 10.585Q126.541 9.70898 127.055 8.35693Q127.569 7.00488 127.569 5.84326Q127.569 4.98633 127.105 4.31982Q126.642 3.65332 125.703 3.65332ZM24.5781 3.78662Q24.8447 3.78662 25.0288 3.9707Q25.2129 4.15479 25.2129 4.42139Q25.2129 4.68164 25.0256 4.8689Q24.8384 5.05615 24.5781 5.05615Q24.3179 5.05615 24.1306 4.8689Q23.9434 4.68164 23.9434 4.42139Q23.9434 4.15479 24.1274 3.9707Q24.3115 3.78662 24.5781 3.78662ZM80.1328 7.25244Q80.5454 7.26514 80.7295 7.26514Q82.0498 7.26514 82.6941 6.69067Q83.3384 6.11621 83.3384 5.25293Q83.3384 4.59912 82.9448 4.23413Q82.5513 3.86914 81.688 3.86914Q81.4595 3.86914 81.104 3.94531L80.1328 7.25244ZM49.9688 4.73242L49.4736 6.45898L50.4702 6.45898L50.3623 6.85889L49.3721 6.85889L48.2803 10.604Q48.1025 11.207 48.1025 11.3848Q48.1025 11.4927 48.1533 11.5498Q48.2041 11.6069 48.2739 11.6069Q48.4326 11.6069 48.6929 11.3848Q48.8452 11.2578 49.3721 10.604L49.5815 10.7627Q48.9976 11.6133 48.4771 11.9624Q48.1216 12.2036 47.7598 12.2036Q47.4805 12.2036 47.3027 12.0291Q47.125 11.8545 47.125 11.5815Q47.125 11.2388 47.3281 10.5342L48.3882 6.85889L47.4297 6.85889L47.4932 6.61133Q48.1914 6.4209 48.6548 6.04321Q49.1182 5.66553 49.6895 4.73242L49.9688 4.73242ZM8.47412 10.6104L9.71191 6.30664L8.70264 6.45898L8.47412 7.18262Q8.34082 6.71289 8.08374 6.50977Q7.82666 6.30664 7.43945 6.30664Q6.79199 6.30664 6.06201 6.83984Q5.12891 7.5127 4.52271 8.63306Q3.9165 9.75342 3.9165 10.7627Q3.9165 11.4355 4.25293 11.8196Q4.58936 12.2036 5.05273 12.2036Q5.53516 12.2036 6.03662 11.8926Q6.73486 11.4609 7.56641 10.3755L7.43311 10.8516Q7.29346 11.3594 7.29346 11.6704Q7.29346 11.9307 7.42993 12.0671Q7.56641 12.2036 7.83936 12.2036Q8.23291 12.2036 8.69629 11.8577Q9.15967 11.5117 9.59766 10.8516L9.38184 10.6992Q8.96924 11.2769 8.72168 11.4609Q8.58838 11.5625 8.50586 11.5625Q8.42969 11.5625 8.37891 11.5054Q8.31543 11.4292 8.31543 11.3276Q8.31543 11.2705 8.33447 11.188L8.47412 10.6104ZM14.8281 6.30664L14.4409 8.25537L14.2061 8.25537Q14.1743 7.40479 13.8442 7.01758Q13.5142 6.63037 13.0254 6.63037Q12.6318 6.63037 12.4001 6.84619Q12.1685 7.06201 12.1685 7.3667Q12.1685 7.57617 12.2605 7.7666Q12.3525 7.95703 12.6636 8.2998Q13.4888 9.20117 13.73 9.6582Q13.9712 10.1152 13.9712 10.5215Q13.9712 11.1816 13.4221 11.6926Q12.873 12.2036 12.0352 12.2036Q11.5781 12.2036 10.9814 11.9878Q10.772 11.9116 10.6577 11.9116Q10.3721 11.9116 10.2261 12.2036L9.99121 12.2036L10.3784 10.147L10.6133 10.147Q10.6514 11.1118 11.0132 11.5117Q11.375 11.9116 12.0034 11.9116Q12.4858 11.9116 12.7683 11.6418Q13.0508 11.3721 13.0508 10.9785Q13.0508 10.7246 12.9492 10.5088Q12.7715 10.1279 12.2034 9.45508Q11.6353 8.78223 11.4734 8.4458Q11.3115 8.10938 11.3115 7.77295Q11.3115 7.15723 11.759 6.73193Q12.2065 6.30664 12.9111 6.30664Q13.1143 6.30664 13.2793 6.33838Q13.3682 6.35742 13.6951 6.4812Q14.022 6.60498 14.1299 6.60498Q14.4028 6.60498 14.5869 6.30664L14.8281 6.30664ZM24.6606 6.30664L23.4038 10.7563Q23.2769 11.207 23.2769 11.2959Q23.2769 11.3975 23.3372 11.4609Q23.3975 11.5244 23.48 11.5244Q23.5752 11.5244 23.7085 11.4229Q24.0703 11.1372 24.4385 10.6104L24.6606 10.7563Q24.229 11.4165 23.645 11.8672Q23.2134 12.2036 22.8198 12.2036Q22.5596 12.2036 22.3945 12.0481Q22.2295 11.8926 22.2295 11.6577Q22.2295 11.4229 22.3882 10.877L23.2134 8.0332Q23.4165 7.33496 23.4165 7.15723Q23.4165 7.01758 23.3181 6.92871Q23.2197 6.83984 23.0483 6.83984Q22.9087 6.83984 22.4707 6.90967L22.4707 6.66211L24.6606 6.30664ZM30.7893 10.1787Q31.2939 9.24561 31.2939 8.29346Q31.2939 7.41113 30.7512 6.85889Q30.2085 6.30664 29.3706 6.30664Q28.5327 6.30664 27.6345 6.85254Q26.7363 7.39844 26.2 8.33789Q25.6636 9.27734 25.6636 10.2104Q25.6636 11.0928 26.2126 11.6482Q26.7617 12.2036 27.6313 12.2036Q28.4819 12.2036 29.3833 11.6577Q30.2847 11.1118 30.7893 10.1787ZM34.6519 6.30664L33.8076 9.19482Q34.9946 7.42383 35.6262 6.86523Q36.2578 6.30664 36.8418 6.30664Q37.1592 6.30664 37.3655 6.51611Q37.5718 6.72559 37.5718 7.06201Q37.5718 7.44287 37.3877 8.07764L36.6133 10.75Q36.48 11.2134 36.48 11.3149Q36.48 11.4038 36.5308 11.4641Q36.5815 11.5244 36.6387 11.5244Q36.7148 11.5244 36.8228 11.4419Q37.1592 11.1753 37.5591 10.6294L37.7559 10.75Q37.1655 11.5942 36.6387 11.9561Q36.2705 12.2036 35.9785 12.2036Q35.7437 12.2036 35.604 12.0608Q35.4644 11.918 35.4644 11.6768Q35.4644 11.3721 35.6802 10.6294L36.4165 8.07764Q36.5562 7.60156 36.5562 7.33496Q36.5562 7.20801 36.4736 7.12866Q36.3911 7.04932 36.2705 7.04932Q36.0928 7.04932 35.8452 7.20166Q35.3755 7.4873 34.8677 8.14429Q34.3599 8.80127 33.7949 9.82324Q33.4966 10.3628 33.2998 11.0039L32.9824 12.0513L32.0303 12.0513L33.1855 8.07764Q33.3887 7.36035 33.3887 7.21436Q33.3887 7.07471 33.2776 6.96997Q33.1665 6.86523 33.0015 6.86523Q32.9253 6.86523 32.7349 6.89063L32.4937 6.92871L32.4556 6.7002L34.6519 6.30664ZM45.8618 8.25537L46.249 6.30664L46.0078 6.30664Q45.8237 6.60498 45.5508 6.60498Q45.4429 6.60498 45.116 6.4812Q44.7891 6.35742 44.7002 6.33838Q44.5352 6.30664 44.332 6.30664Q43.6274 6.30664 43.1799 6.73193Q42.7324 7.15723 42.7324 7.77295Q42.7324 8.10938 42.8943 8.4458Q43.0562 8.78223 43.6243 9.45508Q44.1924 10.1279 44.3701 10.5088Q44.4717 10.7246 44.4717 10.9785Q44.4717 11.3721 44.1892 11.6418Q43.9067 11.9116 43.4243 11.9116Q42.7959 11.9116 42.4341 11.5117Q42.0723 11.1118 42.0342 10.147L41.7993 10.147L41.4121 12.2036L41.647 12.2036Q41.793 11.9116 42.0786 11.9116Q42.1929 11.9116 42.4023 11.9878Q42.999 12.2036 43.4561 12.2036Q44.2939 12.2036 44.843 11.6926Q45.3921 11.1816 45.3921 10.5215Q45.3921 10.1152 45.1509 9.6582Q44.9097 9.20117 44.0845 8.2998Q43.7734 7.95703 43.6814 7.7666Q43.5894 7.57617 43.5894 7.3667Q43.5894 7.06201 43.821 6.84619Q44.0527 6.63037 44.4463 6.63037Q44.9351 6.63037 45.2651 7.01758Q45.5952 7.40479 45.627 8.25537L45.8618 8.25537ZM55.7102 10.1787Q56.2148 9.24561 56.2148 8.29346Q56.2148 7.41113 55.6721 6.85889Q55.1294 6.30664 54.2915 6.30664Q53.4536 6.30664 52.5554 6.85254Q51.6572 7.39844 51.1208 8.33789Q50.5845 9.27734 50.5845 10.2104Q50.5845 11.0928 51.1335 11.6482Q51.6826 12.2036 52.5522 12.2036Q53.4028 12.2036 54.3042 11.6577Q55.2056 11.1118 55.7102 10.1787ZM57.3828 6.66211L59.5728 6.30664L58.6587 9.3916Q59.7695 7.49365 60.6772 6.73828Q61.1914 6.30664 61.5151 6.30664Q61.7246 6.30664 61.8452 6.43042Q61.9658 6.5542 61.9658 6.78906Q61.9658 7.20801 61.75 7.58887Q61.5977 7.87451 61.312 7.87451Q61.166 7.87451 61.0613 7.7793Q60.9565 7.68408 60.9312 7.4873Q60.9185 7.3667 60.874 7.32861Q60.8232 7.27783 60.7534 7.27783Q60.6455 7.27783 60.5503 7.32861Q60.3853 7.41748 60.0488 7.82373Q59.522 8.4458 58.9063 9.43604Q58.6396 9.85498 58.4492 10.3818Q58.1826 11.1055 58.1445 11.2515L57.9414 12.0513L56.9702 12.0513L58.1445 8.10938Q58.3477 7.42383 58.3477 7.13184Q58.3477 7.01758 58.2524 6.94141Q58.1255 6.83984 57.916 6.83984Q57.7827 6.83984 57.4272 6.89697L57.3828 6.66211ZM63.2671 10.1851Q63.2671 9.97559 63.3115 9.6582Q64.6001 9.51221 65.311 9.25195Q66.3838 8.86475 66.936 8.23633Q67.355 7.75391 67.355 7.22705Q67.355 6.85254 67.0313 6.57959Q66.7075 6.30664 66.0347 6.30664Q65.1016 6.30664 64.2192 6.85571Q63.3369 7.40479 62.7529 8.39502Q62.1689 9.38525 62.1689 10.3311Q62.1689 11.0356 62.6387 11.6196Q63.1084 12.2036 64.0352 12.2036Q65.3999 12.2036 66.9043 10.7119L66.771 10.5278Q65.9395 11.1689 65.5173 11.3562Q65.0952 11.5435 64.6382 11.5435Q64.0669 11.5435 63.667 11.1467Q63.2671 10.75 63.2671 10.1851ZM72.249 6.30664L71.8618 8.25537L71.627 8.25537Q71.5952 7.40479 71.2651 7.01758Q70.9351 6.63037 70.4463 6.63037Q70.0527 6.63037 69.821 6.84619Q69.5894 7.06201 69.5894 7.3667Q69.5894 7.57617 69.6814 7.7666Q69.7734 7.95703 70.0845 8.2998Q70.9097 9.20117 71.1509 9.6582Q71.3921 10.1152 71.3921 10.5215Q71.3921 11.1816 70.843 11.6926Q70.2939 12.2036 69.4561 12.2036Q68.999 12.2036 68.4023 11.9878Q68.1929 11.9116 68.0786 11.9116Q67.793 11.9116 67.647 12.2036L67.4121 12.2036L67.7993 10.147L68.0342 10.147Q68.0723 11.1118 68.4341 11.5117Q68.7959 11.9116 69.4243 11.9116Q69.9067 11.9116 70.1892 11.6418Q70.4717 11.3721 70.4717 10.9785Q70.4717 10.7246 70.3701 10.5088Q70.1924 10.1279 69.6243 9.45508Q69.0562 8.78223 68.8943 8.4458Q68.7324 8.10938 68.7324 7.77295Q68.7324 7.15723 69.1799 6.73193Q69.6274 6.30664 70.332 6.30664Q70.5352 6.30664 70.7002 6.33838Q70.7891 6.35742 71.116 6.4812Q71.4429 6.60498 71.5508 6.60498Q71.8237 6.60498 72.0078 6.30664L72.249 6.30664ZM64.8857 8.979Q64.2954 9.23926 63.356 9.34717Q63.6987 8.00146 64.4255 7.31274Q65.1523 6.62402 65.7998 6.62402Q66.1108 6.62402 66.2791 6.78906Q66.4473 6.9541 66.4473 7.2207Q66.4473 7.65869 66.0569 8.14429Q65.6665 8.62988 64.8857 8.979ZM6.58887 7.01758Q7.0459 6.63672 7.45215 6.63672Q7.81396 6.63672 8.02344 6.87793Q8.23291 7.11914 8.23291 7.65869Q8.23291 9.08691 7.14746 10.4453Q6.33496 11.4673 5.64307 11.4673Q5.36377 11.4673 5.14795 11.2166Q4.93213 10.9658 4.93213 10.5342Q4.93213 9.67725 5.43677 8.61719Q5.94141 7.55713 6.58887 7.01758ZM29.9514 6.95093Q30.2402 7.26514 30.2402 7.85547Q30.2402 9.22656 29.4563 10.5564Q28.6724 11.8862 27.7773 11.8862Q27.314 11.8862 27.0093 11.5593Q26.7046 11.2324 26.7046 10.6294Q26.7046 9.30908 27.4885 7.9729Q28.2725 6.63672 29.2056 6.63672Q29.6626 6.63672 29.9514 6.95093ZM54.8723 6.95093Q55.1611 7.26514 55.1611 7.85547Q55.1611 9.22656 54.3772 10.5564Q53.5933 11.8862 52.6982 11.8862Q52.2349 11.8862 51.9302 11.5593Q51.6255 11.2324 51.6255 10.6294Q51.6255 9.30908 52.4094 7.9729Q53.1934 6.63672 54.1265 6.63672Q54.5835 6.63672 54.8723 6.95093ZM78.8823 11.4927Q79.5679 11.5815 79.9551 11.5815Q80.9453 11.5815 81.7102 10.9849Q82.4751 10.3882 82.4751 9.36621Q82.4751 8.58545 82.0022 8.14746Q81.5293 7.70947 80.4756 7.70947Q80.2725 7.70947 79.9805 7.72852L78.8823 11.4927ZM96.6938 8.80762L96.4336 9.65186L93.1455 9.65186L93.4058 8.80762L96.6938 8.80762Z" />
    </g>
    <path d="M11 80.5L134 80.5" id="Line" fill="none" fill-rule="evenodd" stroke="#FD5806" stroke-width="9" stroke-linecap="square" />
  </g>
</svg>