<?xml version="1.0" encoding="utf-8"?>
<svg width="80.31592px" height="80.31586px" viewBox="0 0 80.31592 80.31586" version="1.1" xmlns:xlink="http://www.w3.org/1999/xlink" xmlns="http://www.w3.org/2000/svg">
  <defs>
    <path d="M0 0L80.3159 0L80.3159 80.3159L0 80.3159L0 0Z" id="path_1" />
    <clipPath id="mask_1">
      <use xlink:href="#path_1" />
    </clipPath>
  </defs>
  <g id="Instagram-icon" transform="scale(0.9999999 0.9999999)">
    <path d="M0 0L80.3159 0L80.3159 80.3159L0 80.3159L0 0Z" id="Background" fill="none" fill-rule="evenodd" stroke="none" />
    <g clip-path="url(#mask_1)">
      <path d="M25.701 4.81891C14.1877 4.81891 4.81885 14.1877 4.81885 25.701L4.81885 54.6148C4.81885 66.1281 14.1877 75.4969 25.701 75.4969L54.6147 75.4969C66.128 75.4969 75.4968 66.1281 75.4968 54.6148L75.4968 25.701C75.4968 14.1877 66.128 4.81891 54.6147 4.81891L25.701 4.81891L25.701 4.81891ZM25.701 8.03156L54.6147 8.03156C64.3915 8.03156 72.2842 15.9242 72.2842 25.701L72.2842 54.6148C72.2842 64.3916 64.3915 72.2843 54.6147 72.2843L25.701 72.2843C15.9242 72.2843 8.03149 64.3916 8.03149 54.6148L8.03149 25.701C8.03149 15.9242 15.9242 8.03156 25.701 8.03156L25.701 8.03156ZM59.4336 17.6694C57.6593 17.6694 56.2209 19.1078 56.2209 20.8821C56.2209 22.6564 57.6593 24.0947 59.4336 24.0947C61.2079 24.0947 62.6462 22.6564 62.6462 20.8821C62.6462 19.1078 61.2079 17.6694 59.4336 17.6694L59.4336 17.6694ZM40.1578 22.4883C30.4182 22.4883 22.4883 30.4183 22.4883 40.1578C22.4883 49.8974 30.4182 57.8273 40.1578 57.8273C49.8973 57.8273 57.8273 49.8974 57.8273 40.1578C57.8273 30.4183 49.8973 22.4883 40.1578 22.4883L40.1578 22.4883ZM40.1578 25.701C48.1611 25.701 54.6146 32.1545 54.6146 40.1578C54.6146 48.1612 48.1611 54.6147 40.1578 54.6147C32.1545 54.6147 25.7009 48.1612 25.7009 40.1578C25.7009 32.1545 32.1545 25.701 40.1578 25.701L40.1578 25.701Z" id="Shape" fill="#000000" fill-rule="evenodd" stroke="none" />
    </g>
  </g>
</svg>